<svg width="16" height="16" fill="none" xmlns="http://www.w3.org/2000/svg"><path fill-rule="evenodd" clip-rule="evenodd" d="M6 7.995a1 1 0 11-1.999 0 1 1 0 011.999 0z" fill="#fff"/><path clip-rule="evenodd" d="M14 14.99H2a1 1 0 01-1-.998V1.998A1 1 0 012 1h12a1 1 0 011 1v11.992a1 1 0 01-1 .999z" stroke="#fff" stroke-width="2" stroke-linecap="round" stroke-linejoin="round"/><path fill-rule="evenodd" clip-rule="evenodd" d="M9 7.995a1 1 0 11-1.999 0 1 1 0 011.999 0zm3 0a1 1 0 11-1.999 0 1 1 0 011.999 0zm-6 2.998a1 1 0 11-1.999 0 1 1 0 011.999 0zm3 0a1 1 0 11-1.999 0 1 1 0 011.999 0zm3 0a1 1 0 11-1.999 0 1 1 0 011.999 0z" fill="#fff"/><path d="M5 4.998h6" stroke="#fff" stroke-width="2" stroke-linecap="round" stroke-linejoin="round"/></svg>