<svg width="16" height="15" fill="none" xmlns="http://www.w3.org/2000/svg"><path d="M13 13.974h-2m-6 0H3" stroke="#fff" stroke-width="2" stroke-linecap="round" stroke-linejoin="round"/><path fill-rule="evenodd" clip-rule="evenodd" d="M6 9.977a1 1 0 11-1.999 0 1 1 0 011.999 0zm6 0a1 1 0 11-1.999 0 1 1 0 011.999 0z" fill="#fff"/><path clip-rule="evenodd" d="M14 12.975H2a1 1 0 01-1-1V6.98a1 1 0 011-1h12a1 1 0 011 1v4.996a1 1 0 01-1 1z" stroke="#fff" stroke-width="2" stroke-linecap="round" stroke-linejoin="round"/><path d="M2 5.98l1.724-3.445a.999.999 0 01.894-.553h6.764c.379 0 .725.214.894.553L14 5.979" stroke="#fff" stroke-width="2" stroke-linecap="round" stroke-linejoin="round"/></svg>