<svg width="68" height="77" fill="none" xmlns="http://www.w3.org/2000/svg"><path d="M.504 51.008V16.727h1.963V51.01H.504z" fill="#111C37" stroke="#fff"/><path d="M11.767 68.507a20.945 20.945 0 01-8.8-16.999c0-.813-.663-1.472-1.482-1.472-.818 0-1.481.66-1.481 1.472m11.763 16.999L.004 51.508m11.763 16.999l23.558 16.804-23.558-16.804zM.004 51.508h.5s0 0 0 0 0 0 0 0h-.5zm59.659 17.406h0L36.104 85.717l23.558-16.803zm0 0a21.444 21.444 0 008.997-17.405v0m-8.997 17.405l8.997-17.406m0 0V16.862m0 34.647V16.861m0 0l-.302-.13m.302.13l-.302-.13m0 0L35.762 2.619l-.199-.086m32.795 14.199l-32.795-14.2m0 0l-.198.087m.198-.086l-.198.086m0 0L1.88 17.117a.989.989 0 01-1.298-.505.972.972 0 01.51-1.283h0M35.364 2.62L1.09 15.329m0 0L35.17.582h0M1.092 15.329L35.17.582m0 0a.99.99 0 01.787 0h0m-.787 0h.788m0 0l34.077 14.747L35.958.582zM70.623 16.22v0a.972.972 0 00-.588-.89l.588.89zm0 0v35.287A23.395 23.395 0 0160.8 70.492L37.24 87.296s0 0 0 0a2.896 2.896 0 01-3.359.001M70.623 16.22L33.882 87.298m0 0s0 0 0 0h0zM10.323 70.494l-.29.407.29-.407h0zm24.712 15.224a.92.92 0 001.07 0h-1.07z" fill="#111C37" stroke="#fff"/><path d="M6.43 20.083h0v31.425a17.504 17.504 0 007.355 14.201L34.99 80.837s0 0 0 0a.989.989 0 00.573.183h0a.989.989 0 00.574-.182L6.43 20.083zm0 0c0-.385.23-.735.588-.89 0 0 0 0 0 0L35.17 7.004h0M6.43 20.083L35.17 7.005m0 0a.99.99 0 01.787 0h0m-.787 0h.787m0 0L64.11 19.192 35.957 7.005zm28.74 13.079v0a.972.972 0 00-.588-.892l.588.892zm0 0v31.423m0-31.423v31.423m0 0a17.504 17.504 0 01-7.347 14.2l7.346-14.2zm-7.348 14.2l-21.212 15.13 21.212-15.13zm-41.464-.887l-.002-.01 19.39 13.833.29.207.29-.207L56.196 64.13a15.559 15.559 0 006.538-12.621V20.725l-.301-.13-26.67-11.551-.199-.086-.198.086-26.67 11.55-.301.131v30.791a15.555 15.555 0 006.539 12.625l.952.679z" fill="#111C37" stroke="#fff"/><path d="M20.247 58.89v.5H50.88V36.6c0-.533.436-.972.982-.972.545 0 .981.439.981.973v22.29c0 1.346-1.1 2.444-2.463 2.444H20.747a2.454 2.454 0 01-2.463-2.445V36.6c0-.533.436-.972.981-.972.545 0 .982.439.982.973v22.29z" fill="#111C37" stroke="#fff"/><path d="M34.992 24.238l-18.4 13.06-.79.56V32.89l.21-.15 19.262-13.67.29-.206.289.205L55.114 32.74l.21.15v4.969l-.788-.56-18.401-13.06h-1.143zm0 0s0 0 0 0a.988.988 0 01.571-.181h0m-.571.181l.572-.181m0 0c.205 0 .404.063.57.181l-.57-.181zm20.742 16.666h0a.988.988 0 01-.57-.181h-.001L35.853 26.43l-.29-.205-.289.205-19.882 14.112s0 0 0 0a.99.99 0 01-1.022.073.971.971 0 01-.531-.864v0-7.361 0a.97.97 0 01.41-.79h0l20.743-14.723a.99.99 0 011.143 0l20.743 14.722h0a.97.97 0 01.41.79v7.362a.977.977 0 01-.981.972zM30.619 58.89v.5h9.89V45.64c0-1.092-.89-1.972-1.982-1.972H32.6c-1.091 0-1.982.88-1.982 1.972v13.25zm10.871 2.445H29.637a.977.977 0 01-.982-.973V45.64c0-2.16 1.763-3.917 3.945-3.917h5.927c2.181 0 3.945 1.757 3.945 3.917v14.722a.977.977 0 01-.982.973z" fill="#111C37" stroke="#fff"/><path d="M41.49 52.501h-2.963a.977.977 0 01-.982-.972c0-.534.436-.972.982-.972h2.963c.545 0 .982.438.982.972a.977.977 0 01-.982.972z" fill="#111C37" stroke="#fff"/></svg>