<svg width="77" height="96" fill="none" xmlns="http://www.w3.org/2000/svg"><path d="M6.423 37.313v-.001a38.276 38.276 0 0113.717-12.92 38.984 38.984 0 0117.76-4.685v2.2a36.782 36.782 0 00-16.694 4.41h0l-.005.003a36.077 36.077 0 00-12.92 12.17 35.043 35.043 0 00-4.146 9.156v.003a38.306 38.306 0 00-1.426 9.45h-2.2A40.472 40.472 0 012.023 47.03a37.239 37.239 0 014.4-9.718z" fill="#111C37" stroke="#fff"/><path d="M38.4 95.5C17.48 95.476.525 78.522.5 57.6a1.1 1.1 0 012.2 0c0 19.717 15.983 35.7 35.7 35.7 19.717 0 35.7-15.983 35.7-35.7 0-19.717-15.983-35.7-35.7-35.7a1.1 1.1 0 010-2.2c20.932 0 37.9 16.968 37.9 37.9 0 20.931-16.968 37.9-37.9 37.9zm-.915-80.49h0c.204.307.548.49.916.49v.5-.5a1.1 1.1 0 00.914-1.71h0L30.787.99h0a1.099 1.099 0 00-.915-.49h0H14.4s0 0 0 0a1.1 1.1 0 00-.915 1.71h0l8.528 12.8s0 0 0 0a1.1 1.1 0 001.83-1.22l13.642 1.22zm0 0L29.432 2.923l-.149-.223H16.454l.518.777 6.871 10.313 13.642 1.22z" fill="#111C37" stroke="#fff"/><path d="M52.957 13.79h0l6.87-10.313.519-.777H47.517l-.149.223-8.053 12.087h0l-.002.004a1.1 1.1 0 11-1.83-1.22h0l.002-.004L46.013.99h0a1.1 1.1 0 01.915-.49H62.4a1.1 1.1 0 01.915 1.71h0l-8.528 12.8h0c-.204.307-.548.49-.916.49v.499-.499a1.1 1.1 0 01-.914-1.71z" fill="#111C37" stroke="#fff"/><path d="M57.31 27.132h-.026a1.101 1.101 0 01-1.04-.833l-2.303-9.216-.001-.002a2.101 2.101 0 00-.95-1.28l-.005-.003a2.146 2.146 0 00-1.078-.298H24.896v0h-.006a2.254 2.254 0 00-1.028.263h0l-.01.005a2.057 2.057 0 00-.994 1.317l-2.302 9.21a1.1 1.1 0 01-2.134-.534l2.303-9.212h0a4.291 4.291 0 012.11-2.731 4.497 4.497 0 012.063-.518h27.006a4.296 4.296 0 014.171 3.25l2.304 9.215h0a1.1 1.1 0 01-1.068 1.367zM47.984 87.5h-.018a1.093 1.093 0 01-.284-.042h-.001a35.524 35.524 0 01-6.542-2.594 1.1 1.1 0 01-.17-1.845 18.323 18.323 0 003.896-4.083 1.1 1.1 0 011.815 1.243 19.655 19.655 0 01-2.488 2.946l-.538.523.69.295c1.284.549 2.6 1.016 3.941 1.4h.001a1.1 1.1 0 01-.302 2.158zm10.764-5.836a1.1 1.1 0 01-1.057 1.142c-.375.014-.75.02-1.126.02v.5-.5a29.23 29.23 0 01-5.306-.482 1.1 1.1 0 01-.792-1.557 18.31 18.31 0 001.567-4.974v-.001a1.1 1.1 0 012.173.351 20.256 20.256 0 01-.947 3.644l-.217.6.634.067a27.4 27.4 0 003.93.133h0a1.1 1.1 0 011.141 1.057zm5.993-6.316a26.633 26.633 0 01-5.929 1.581 1.088 1.088 0 01-.155.011l-.001.5v-.5a1.1 1.1 0 01-1.099-1.145 21.007 21.007 0 00-.427-5.19v-.001a1.1 1.1 0 012.152-.455c.262 1.248.42 2.515.473 3.788l.024.6.587-.133a24.901 24.901 0 003.572-1.104h0l.005-.002a1.1 1.1 0 11.805 2.047h0l-.007.003zm-1.099-9.018l.22.56.51-.32a25.288 25.288 0 002.972-2.177 1.1 1.1 0 011.424 1.677v.001a26.875 26.875 0 01-5.028 3.39 1.1 1.1 0 01-1.555-.65 22.868 22.868 0 00-2.101-4.785 1.1 1.1 0 011.896-1.114 24.555 24.555 0 011.662 3.418zm1.556-5.177h0c.297 0 .58-.12.788-.332a28.165 28.165 0 003.75-4.835v-.001a1.1 1.1 0 00-1.872-1.156 26.685 26.685 0 01-2.18 3.04l-.387.466-.384-.467a24.219 24.219 0 00-2.584-2.688 1.1 1.1 0 00-1.46 1.646 22.593 22.593 0 013.43 3.863m.899.464l-1.307-.176m1.307.176c-.029 0-.058 0-.087-.003m.087.003l-.125.495m-.774-.96l.001.001-.41.288m.41-.288l-.001-.001-.408.288m.408-.287a1.1 1.1 0 00.811.46m-1.22-.172a1.6 1.6 0 001.183.672m.038-.5h-.002l-.036.5m.038-.5v.001l-.038.498m-4.741-13.942s0 0 0 0l.197-.46a1.6 1.6 0 00-1.255 2.944l1.058-2.484zm0 0a1.1 1.1 0 00-.862 2.024h.001a21.526 21.526 0 014.416 2.559 1.099 1.099 0 001.643-.394c.913-1.853 1.62-3.8 2.108-5.807l.001-.005h0a1.1 1.1 0 10-2.136-.525l-.001.004h0a26.613 26.613 0 01-1.168 3.628l-.225.556-.506-.32a23.151 23.151 0 00-3.27-1.72zm.94-3.201h0a1.1 1.1 0 001.09-.95 26.03 26.03 0 00.098-6.202l-.001-.008h0a1.1 1.1 0 10-2.188.226v.007h0a24.03 24.03 0 01.092 3.803l-.033.597-.582-.138a23.261 23.261 0 00-3.725-.572l5.25 3.237zm0 0c-.114 0-.227-.017-.336-.052m.336.052l-5.404-1.043m0 0h.001a21.55 21.55 0 015.067.991m-5.068-.99a1.1 1.1 0 01-1.02-1.175m1.02 1.174l-1.02-1.174m6.088 2.165h.001l-.154.476.153-.476s0 0 0 0zm-6.088-2.165a1.1 1.1 0 011.175-1.02l-1.175 1.02zM28.514 85.343h0a33.37 33.37 0 003.941-1.4l.69-.295-.538-.523a19.66 19.66 0 01-2.487-2.946 1.1 1.1 0 011.815-1.242 18.324 18.324 0 003.896 4.082 1.1 1.1 0 01-.17 1.845 35.51 35.51 0 01-6.542 2.594h-.001c-.098.028-.2.043-.302.043v.5-.5a1.1 1.1 0 01-.302-2.158zm-2.18-4.556a18.312 18.312 0 01-1.568-4.974v-.001a1.1 1.1 0 00-2.172.351 20.21 20.21 0 00.946 3.644l.218.6-.635.067a27.201 27.201 0 01-3.93.133 1.1 1.1 0 00-.084 2.199s0 0 0 0l-.018.5c.381.014.763.02 1.144.02l6.099-2.539zm0 0a1.1 1.1 0 01-.792 1.556l.791-1.556zm-8.19-3.847v.5l-.001-.5a1.33 1.33 0 01-.155-.01 26.634 26.634 0 01-5.929-1.582h0l-.007-.002a1.1 1.1 0 11.805-2.048h0l.006.002c1.16.457 2.355.826 3.571 1.104l.586.134.025-.6c.052-1.274.21-2.54.473-3.788a1.1 1.1 0 012.152.454v.001c-.357 1.706-.5 3.45-.427 5.19a1.1 1.1 0 01-1.099 1.145zm-5.084-7.478c.156.08.33.122.505.122h.036a1.102 1.102 0 001.014-.772 22.866 22.866 0 012.1-4.786 1.1 1.1 0 00-1.896-1.114 24.566 24.566 0 00-1.66 3.418l-.221.56-.51-.32a25.294 25.294 0 01-2.972-2.176l3.604 5.068zm0 0a26.877 26.877 0 01-5.028-3.39v-.002a1.1 1.1 0 011.424-1.676l3.604 5.068zm2.872-12.637a22.592 22.592 0 00-3.431 3.863 1.101 1.101 0 01-.813.462h0-.003a1.1 1.1 0 01-.87-.33 28.174 28.174 0 01-3.75-4.835h-.001a1.1 1.1 0 011.872-1.157 26.699 26.699 0 002.18 3.04l.387.466.385-.467a24.21 24.21 0 012.584-2.688 1.1 1.1 0 011.46 1.646zm-2.735-7.399a23.14 23.14 0 013.271-1.72 1.1 1.1 0 01.863 2.024h-.002a21.522 21.522 0 00-4.415 2.559 1.098 1.098 0 01-1.644-.394 28.286 28.286 0 01-2.108-5.807h0l-.001-.005a1.1 1.1 0 112.136-.524h0l.001.004a26.62 26.62 0 001.168 3.627l.225.556.506-.32zm2.667-4.973a21.516 21.516 0 015.067-.99h.001a1.1 1.1 0 10-.155-2.195l-4.913 3.185zm0 0a1.096 1.096 0 01-.336.052v.5-.5a1.1 1.1 0 01-1.09-.95 26.032 26.032 0 01-.098-6.202h0l.001-.008a1.1 1.1 0 112.188.226h0v.007a24.068 24.068 0 00-.092 3.803l.033.597.582-.138a23.263 23.263 0 013.725-.572l-4.913 3.185z" fill="#111C37" stroke="#fff"/></svg>