<svg width="66" height="71" fill="none" xmlns="http://www.w3.org/2000/svg"><g opacity=".2" clip-path="url(#clip0)" fill="#111C37" stroke="#fff"><path d="M1.316 75.208H59.25a.816.816 0 00.816-.816v0-4.008A11.312 11.312 0 0053.78 60.21h-.002l-12.577-6.29H41.2h0l.223-.448A3.461 3.461 0 0139.5 50.36L1.316 75.208zm0 0a.816.816 0 01-.816-.816v-4.264h0a11.372 11.372 0 015.929-9.989h0l11.746-6.407L1.316 75.208zm.817-1.633v-3.447s0 0 0 0a9.738 9.738 0 015.079-8.555s0 0 0 0l11.746-6.407a5.613 5.613 0 002.925-4.928v-4.813a.817.817 0 00-.19-.524l-.006-.007-.006-.008a25.344 25.344 0 01-4.58-9.49l-.001-.007h0a.817.817 0 00-.352-.502A3.125 3.125 0 0115.3 32.26v-5.27a3.095 3.095 0 011.05-2.313.815.815 0 00.266-.604v0-7.615a.787.787 0 00-.006-.105l-.002-.013-.001-.014a9.636 9.636 0 012.229-6.972l.006-.008h0c2.32-2.646 6.217-3.921 11.441-3.921 5.205 0 9.094 1.266 11.416 3.893l.01.01h-.001a9.76 9.76 0 012.252 6.996l-.001.014-.002.015a.788.788 0 00-.007.106v7.614c0 .23.097.45.267.605a3.096 3.096 0 011.05 2.312v5.27a3.12 3.12 0 01-2.228 2.978.816.816 0 00-.534.528 28.063 28.063 0 01-3.798 7.656M2.133 73.575l50.912-11.906-12.576-6.288h-.001a5.582 5.582 0 01-3.102-5.02v-4.936 0c0-.198.073-.39.204-.539l.003-.004c.403-.466.781-.954 1.134-1.46M2.133 73.575h56.3v-3.188m-56.3 3.188l56.3-3.188M38.707 43.422h-.001l-.409-.287.41.286s0 0 0 0zm19.726 26.965v-.001m0 0h0m0 0a9.69 9.69 0 00-5.386-8.716l5.386 8.716z"/><path d="M59.25 75.208h0a.816.816 0 01-.817-.816v-4.006a9.691 9.691 0 00-5.386-8.716h-.002l-10.633-5.318a.818.818 0 01-.306-.266l-.05-.07-.07-.051c-.501-.36-1.942-1.21-3.123-1.867h0a.807.807 0 01-.235-.198h-.001a5.622 5.622 0 01-1.26-3.54v-4.935h0c0-.198.072-.39.203-.539h0l.003-.004c.403-.466.781-.954 1.133-1.46a28.061 28.061 0 003.798-7.656.816.816 0 01.535-.528 3.12 3.12 0 002.227-2.978v-5.27a3.095 3.095 0 00-1.05-2.313.816.816 0 01-.267-.604v0-7.614c0-.035.003-.07.007-.104l.002-.014.001-.013a9.844 9.844 0 00-.28-3.195.818.818 0 01.434-.932 17.414 17.414 0 017.505-1.646c3.8.031 6.65 1.015 8.798 2.453 2.152 1.44 3.624 3.355 4.632 5.285 1.008 1.932 1.547 3.87 1.833 5.34.143.733.222 1.346.266 1.78a13.547 13.547 0 01.05.642v.037l.001.012c.183 9.423 5.996 18.66 8.457 22.162h0a3.41 3.41 0 01-1.415 5.083 14.735 14.735 0 01-6.304.848l-.021-.002h-.021l-8.592.006-.817.001.372.727a3.11 3.11 0 001.105 1.21l.033.021.036.016 12.795 5.54.053.025a10.118 10.118 0 015.62 9.098v3.553a.816.816 0 01-.816.816H59.25zm.817-2.133v.5h16.8v-2.734a8.498 8.498 0 00-4.693-7.626l-.012-.007-.013-.005-12.81-5.549a4.997 4.997 0 01-2.104-2.294l-.004-.008-.003-.007a1.927 1.927 0 011.73-2.777h9.041c1.88.157 3.772-.082 5.553-.703l.016-.006.016-.007c.485-.208.85-.626.989-1.135a1.778 1.778 0 00-.255-1.511c-2.588-3.685-8.563-13.247-8.753-23.07v-.003c-.008-.297-.133-3.727-1.926-7.113-.9-1.699-2.227-3.398-4.178-4.678-1.955-1.282-4.51-2.126-7.836-2.154h-.002a16.26 16.26 0 00-5.83 1.06l-.38.145.065.403c.144.89.18 1.794.107 2.692l-.002.02v7.217l.126.141a4.748 4.748 0 011.19 3.126v5.266a4.725 4.725 0 01-2.77 4.307l-.197.09-.07.204a29.616 29.616 0 01-3.824 7.509c-.322.456-.632.865-.925 1.224L39 45.73v4.63h0a3.98 3.98 0 00.732 2.296l.073.102.112.056a20.223 20.223 0 013.46 2.183l.039.03.045.023 10.317 5.159h.001a11.312 11.312 0 016.288 10.174v2.692z"/></g><defs><clipPath id="clip0"><path fill="#fff" d="M0 0h66v71H0z"/></clipPath></defs></svg>