<svg width="26" height="26" fill="none" xmlns="http://www.w3.org/2000/svg"><path d="M21.223 8.38l-.005-.02c-.416-1.679-2.288-3.48-4.008-3.855l-.019-.004a22.268 22.268 0 00-8.382 0l-.02.004C7.07 4.88 5.198 6.68 4.782 8.36l-.005.02a16.406 16.406 0 000 7.068l.005.02c.398 1.608 2.131 3.327 3.786 3.8v1.874a.753.753 0 001.297.522l1.899-1.974a22.17 22.17 0 005.427-.362l.02-.003c1.719-.375 3.591-2.177 4.007-3.856l.005-.02a16.405 16.405 0 000-7.068zm-1.503 6.728c-.277 1.096-1.699 2.458-2.828 2.71-1.48.28-2.97.4-4.459.36a.102.102 0 00-.079.031l-1.386 1.424-1.475 1.513a.173.173 0 01-.297-.12v-3.104a.107.107 0 00-.087-.105h-.001c-1.13-.252-2.55-1.613-2.829-2.709a14.888 14.888 0 010-6.387c.278-1.096 1.7-2.457 2.829-2.709a20.74 20.74 0 017.784 0c1.13.252 2.55 1.613 2.828 2.709.463 2.12.463 4.268 0 6.387z" fill="#7D3DAF"/><path d="M15.457 16.541c-.173-.052-.339-.088-.493-.151-1.592-.661-3.058-1.514-4.219-2.82-.66-.744-1.177-1.582-1.614-2.47-.207-.421-.382-.859-.56-1.293C8.41 9.41 8.648 9 8.9 8.702c.236-.28.54-.495.869-.653.257-.123.51-.052.698.166.405.47.778.965 1.08 1.51.185.336.134.746-.202.975-.082.055-.156.12-.232.183a.762.762 0 00-.176.185.506.506 0 00-.034.444c.415 1.14 1.114 2.026 2.26 2.503.184.076.368.165.58.14.353-.041.468-.43.716-.632.242-.198.552-.201.814-.036.26.165.514.343.766.522.247.176.493.349.72.55.22.192.295.446.172.708-.226.48-.555.878-1.029 1.133-.134.072-.294.095-.445.142-.173-.053.151-.047 0 0zM13.004 7.5c2.084.059 3.795 1.441 4.161 3.501.063.35.085.71.113 1.066.012.15-.073.292-.235.294-.167.002-.242-.138-.253-.288-.021-.296-.036-.594-.077-.888-.216-1.551-1.453-2.835-2.998-3.11-.232-.042-.47-.053-.706-.078-.149-.016-.344-.025-.376-.21-.028-.155.103-.278.25-.286.04-.002.081 0 .121 0 2.084.058-.04 0 0 0z" fill="#7D3DAF"/><path d="M16.17 11.605c-.003.026-.005.087-.02.144-.055.21-.373.236-.446.025a.627.627 0 01-.025-.202c0-.44-.096-.882-.319-1.266a2.355 2.355 0 00-.988-.927 2.841 2.841 0 00-.787-.241c-.119-.02-.239-.032-.358-.048-.145-.02-.222-.113-.215-.255.006-.134.104-.23.25-.221.477.027.94.13 1.364.355.865.458 1.358 1.18 1.502 2.145.007.044.017.087.02.131.009.108.014.217.022.36-.003.026-.008-.143 0 0z" fill="#7D3DAF"/><path d="M14.874 11.554c-.174.003-.267-.093-.285-.253-.013-.111-.022-.224-.049-.333a.936.936 0 00-.345-.542.901.901 0 00-.282-.136c-.128-.037-.26-.026-.388-.058-.139-.034-.215-.146-.193-.276a.25.25 0 01.264-.2c.807.057 1.385.475 1.467 1.426.006.067.013.138-.002.202-.026.11-.107.165-.187.17-.174.003.08-.005 0 0z" fill="#7D3DAF"/></svg>