<svg width="27" height="26" fill="none" xmlns="http://www.w3.org/2000/svg"><path d="M4.058 22.102L5.38 17.58a8.798 8.798 0 01-1.298-4.6c0-5.008 4.23-9.081 9.43-9.081 5.2 0 9.43 4.073 9.43 9.08 0 5.008-4.23 9.081-9.43 9.081-1.62 0-3.207-.4-4.61-1.158l-4.844 1.201zM9.15 19.25l.288.17a8.04 8.04 0 004.074 1.1c4.318 0 7.83-3.383 7.83-7.54 0-4.158-3.512-7.54-7.83-7.54s-7.83 3.382-7.83 7.54a7.31 7.31 0 001.236 4.068l.195.291-.762 2.605 2.799-.694z" fill="#1BD741"/><path d="M10.863 8.752l-.612-.032a.758.758 0 00-.526.173c-.296.248-.77.728-.916 1.353-.218.932.118 2.073.987 3.214.869 1.14 2.488 2.966 5.352 3.746.923.251 1.649.082 2.209-.263.443-.273.749-.712.86-1.208l.097-.44a.302.302 0 00-.177-.34l-2.069-.918a.325.325 0 00-.383.09l-.812 1.014a.238.238 0 01-.261.075c-.556-.188-2.418-.94-3.44-2.835a.22.22 0 01.03-.252l.775-.864c.08-.088.1-.213.052-.32l-.892-2.008a.317.317 0 00-.274-.185z" fill="#1BD741"/></svg>